<svg width="128" height="128" viewBox="0 0 128 128" fill="none" xmlns="http://www.w3.org/2000/svg">
<rect width="128" height="128" fill="#CCFBF1"/>
<path d="M98.04 42.4016L66.415 25.0905C65.6756 24.6821 64.8447 24.4679 64 24.4679C63.1553 24.4679 62.3244 24.6821 61.585 25.0905L29.96 42.4051C29.1687 42.8381 28.5083 43.4759 28.048 44.2516C27.5878 45.0274 27.3445 45.9126 27.3438 46.8147V81.1853C27.3445 82.0873 27.5878 82.9726 28.048 83.7483C28.5083 84.5241 29.1687 85.1619 29.96 85.5948L61.585 102.91C62.3246 103.317 63.1554 103.531 64 103.531C64.8446 103.531 65.6754 103.317 66.415 102.91L98.04 85.5948C98.8313 85.1619 99.4917 84.5241 99.952 83.7483C100.412 82.9726 100.655 82.0873 100.656 81.1853V46.8147C100.656 45.912 100.413 45.026 99.9529 44.2496C99.4926 43.4731 98.8319 42.8348 98.04 42.4016ZM63.6406 28.8711C63.7464 28.8132 63.865 28.7829 63.9856 28.7829C64.1062 28.7829 64.2248 28.8132 64.3306 28.8711L94.3708 45.3125L64 61.93L33.6292 45.3125L63.6406 28.8711ZM32.0156 81.8142C31.9054 81.7506 31.8141 81.6588 31.7509 81.5483C31.6878 81.4378 31.6551 81.3126 31.6562 81.1853V49.1434L61.8438 65.6747V98.1406L32.0156 81.8142ZM95.9556 81.8142L66.1562 98.1406V65.6675L96.3438 49.1362V81.1781C96.3462 81.3066 96.3141 81.4334 96.2509 81.5452C96.1877 81.6571 96.0957 81.75 95.9844 81.8142H95.9556Z" fill="#052F2E"/>
<path d="M95.395 43.7055L66.52 27.9062C65.7485 27.48 64.8814 27.2563 64 27.2563C63.1186 27.2563 62.2515 27.48 61.48 27.9062L32.605 43.712C31.7804 44.1632 31.092 44.8275 30.6118 45.6356C30.1316 46.4436 29.8771 47.3658 29.875 48.3058V79.6877C29.8771 80.6276 30.1316 81.5498 30.6118 82.3579C31.092 83.1659 31.7804 83.8302 32.605 84.2814L61.48 100.087C62.2515 100.513 63.1186 100.737 64 100.737C64.8814 100.737 65.7485 100.513 66.52 100.087L95.395 84.2814C96.2196 83.8302 96.908 83.1659 97.3882 82.3579C97.8684 81.5498 98.1229 80.6276 98.125 79.6877V48.3091C98.1246 47.3674 97.871 46.4432 97.3907 45.6333C96.9104 44.8233 96.2211 44.1575 95.395 43.7055ZM64 61.375L37.6352 46.9375L64 32.5L90.3648 46.9375L64 61.375ZM66.625 94.0694V65.913L92.875 51.5477V79.6877L66.625 94.0694Z" fill="#052F2E"/>
</svg>
